<?xml version="1.0" standalone="no"?>
<!DOCTYPE svg PUBLIC "-//W3C//DTD SVG 20010904//EN"
 "http://www.w3.org/TR/2001/REC-SVG-20010904/DTD/svg10.dtd">
<svg version="1.0" xmlns="http://www.w3.org/2000/svg"
 width="23.000000pt" height="23.000000pt" viewBox="0 0 23.000000 23.000000"
 preserveAspectRatio="xMidYMid meet">

<g transform="translate(0.000000,23.000000) scale(0.100000,-0.100000)"
fill="#000000" stroke="none">
<path d="M66 209 c-14 -11 -26 -27 -26 -34 0 -8 -9 -17 -20 -20 -20 -6 -29
-35 -10 -35 5 0 10 -26 12 -57 l3 -58 90 0 90 0 3 58 c2 31 7 57 12 57 19 0
10 32 -10 37 -11 3 -20 11 -20 17 0 21 -45 56 -72 56 -14 0 -37 -9 -52 -21z
m102 -16 c21 -29 14 -33 -53 -33 -67 0 -74 5 -53 32 26 32 81 32 106 1z m39
-57 c4 -3 -37 -6 -91 -6 -53 0 -95 3 -93 8 6 8 175 7 184 -2z m-9 -73 l-3 -48
-80 0 -80 0 -3 48 -3 47 86 0 86 0 -3 -47z"/>
<path d="M72 65 c0 -16 2 -22 5 -12 2 9 2 23 0 30 -3 6 -5 -1 -5 -18z"/>
<path d="M112 65 c0 -16 2 -22 5 -12 2 9 2 23 0 30 -3 6 -5 -1 -5 -18z"/>
<path d="M152 65 c0 -16 2 -22 5 -12 2 9 2 23 0 30 -3 6 -5 -1 -5 -18z"/>
</g>
</svg>
