<?xml version="1.0" standalone="no"?>
<!DOCTYPE svg PUBLIC "-//W3C//DTD SVG 20010904//EN"
 "http://www.w3.org/TR/2001/REC-SVG-20010904/DTD/svg10.dtd">
<svg version="1.0" xmlns="http://www.w3.org/2000/svg"
 width="25.000000pt" height="25.000000pt" viewBox="0 0 25.000000 25.000000"
 preserveAspectRatio="xMidYMid meet">

<g transform="translate(0.000000,25.000000) scale(0.100000,-0.100000)"
fill="#000000" stroke="none">
<path d="M100 230 c0 -23 -4 -24 -29 -10 -24 12 -55 -18 -41 -40 15 -23 12
-30 -10 -30 -15 0 -20 -7 -20 -25 0 -18 5 -25 20 -25 21 0 27 -24 9 -35 -7 -5
-4 -13 7 -26 12 -14 21 -16 35 -9 25 14 29 13 29 -10 0 -15 7 -20 25 -20 18 0
25 5 25 20 0 23 4 24 29 10 24 -12 55 18 41 40 -15 23 -12 30 10 30 15 0 20 7
20 25 0 18 -5 25 -20 25 -22 0 -25 7 -10 30 14 22 -17 52 -41 40 -25 -14 -29
-13 -29 10 0 15 -7 20 -25 20 -18 0 -25 -5 -25 -20z m40 -4 c0 -7 6 -19 14
-25 10 -9 16 -8 26 4 10 12 16 13 27 4 11 -10 11 -14 -2 -29 -11 -12 -12 -19
-3 -28 7 -7 18 -12 25 -12 7 0 13 -7 13 -15 0 -8 -6 -15 -14 -15 -7 0 -19 -6
-25 -14 -9 -10 -8 -16 4 -26 12 -10 13 -16 4 -26 -9 -11 -15 -11 -25 -3 -17
14 -44 5 -44 -16 0 -8 -7 -15 -15 -15 -8 0 -15 7 -15 15 0 21 -27 30 -44 16
-10 -8 -16 -8 -25 3 -9 10 -8 16 4 26 12 10 13 16 4 26 -6 8 -18 14 -25 14 -8
0 -14 7 -14 15 0 8 6 15 13 15 7 0 18 5 25 12 9 9 8 16 -3 28 -13 15 -13 19
-2 29 11 9 17 8 27 -4 10 -12 16 -13 26 -4 8 6 14 18 14 25 0 8 7 14 15 14 8
0 15 -6 15 -14z"/>
<path d="M94 149 c-19 -22 -13 -43 19 -63 12 -8 21 -5 36 8 26 23 26 38 3 59
-24 22 -35 21 -58 -4z m61 -17 c4 -10 -1 -21 -10 -29 -33 -23 -67 13 -39 41
17 17 40 12 49 -12z"/>
</g>
</svg>
