<svg width="20" height="22" viewBox="0 0 20 22" fill="none" xmlns="http://www.w3.org/2000/svg">
<path d="M2.49999 18.7365C2.49999 19.602 2.85118 20.4321 3.47637 21.0441C4.10137 21.6562 4.94923 22 5.83333 22H14.1667C15.0508 22 15.8986 21.6562 16.5236 21.0441C17.1488 20.4321 17.5 19.602 17.5 18.7365V5.68231H19.1667C19.4645 5.68231 19.7396 5.52678 19.8884 5.27437C20.0372 5.02195 20.0372 4.71089 19.8884 4.45848C19.7396 4.20607 19.4645 4.05054 19.1667 4.05054H14.9251C14.6522 2.52549 13.6585 1.21681 12.2457 0.52149C10.8328 -0.17383 9.16724 -0.17383 7.75428 0.52149C6.34152 1.21681 5.34785 2.52549 5.07495 4.05054H0.833323C0.535518 4.05054 0.260417 4.20607 0.111607 4.45848C-0.0372024 4.7109 -0.0372024 5.02196 0.111607 5.27437C0.260417 5.52678 0.535527 5.68231 0.833323 5.68231H2.49999V18.7365ZM10 1.60289C10.7385 1.60343 11.4561 1.84401 12.0398 2.28711C12.6235 2.7302 13.0404 3.35051 13.2251 4.05054H6.77509C6.9598 3.35046 7.37666 2.73021 7.96038 2.28711C8.54409 1.84402 9.26171 1.60345 10.0002 1.60289H10ZM5.83333 5.68231H15.8333V18.7365C15.8333 19.1692 15.6577 19.5842 15.3452 19.8904C15.0326 20.1963 14.6086 20.3682 14.1667 20.3682H5.83333C5.39137 20.3682 4.96742 20.1963 4.65476 19.8904C4.34226 19.5842 4.16666 19.1692 4.16666 18.7365V5.68231H5.83333ZM6.66666 17.1047V8.94585C6.66666 8.65428 6.82552 8.38494 7.08333 8.23924C7.34114 8.09355 7.65885 8.09355 7.91666 8.23924C8.17447 8.38494 8.33333 8.65429 8.33333 8.94585V17.1047C8.33333 17.3963 8.17448 17.6656 7.91666 17.8113C7.65885 17.957 7.34114 17.957 7.08333 17.8113C6.82552 17.6656 6.66666 17.3963 6.66666 17.1047ZM11.6667 17.1047V8.94585C11.6667 8.65428 11.8255 8.38494 12.0833 8.23924C12.3412 8.09355 12.6589 8.09355 12.9167 8.23924C13.1745 8.38494 13.3333 8.65429 13.3333 8.94585V17.1047C13.3333 17.3963 13.1745 17.6656 12.9167 17.8113C12.6589 17.957 12.3411 17.957 12.0833 17.8113C11.8255 17.6656 11.6667 17.3963 11.6667 17.1047Z" fill="#212121"/>
</svg>
