<svg width="16" height="17" viewBox="0 0 16 17" fill="none" xmlns="http://www.w3.org/2000/svg">
<path d="M8.08844 12.2026C8.03095 12.2601 7.97346 12.2984 7.89672 12.3368C7.82011 12.3752 7.74336 12.3752 7.66675 12.3752C7.59014 12.3752 7.5134 12.3561 7.43679 12.3368C7.36018 12.2984 7.30256 12.2602 7.24507 12.2026L3.04753 8.00503C2.81756 7.77507 2.81756 7.39162 3.04753 7.16165C3.27749 6.93168 3.66093 6.93169 3.8909 7.16165L7.07264 10.3434V1.58413C7.07264 1.25831 7.34097 0.98999 7.66677 0.98999C7.99258 0.98999 8.26091 1.25832 8.26091 1.58413V10.3242L11.4426 7.16162C11.6726 6.93166 12.0561 6.93166 12.286 7.16162C12.516 7.39158 12.516 7.77503 12.286 8.00499L8.08844 12.2026Z" fill="white"/>
<path d="M0.594177 11.1867C0.919996 11.1867 1.18832 11.4551 1.18832 11.7809C1.18832 13.6017 2.6642 15.0776 4.48502 15.0776H10.8292C12.6501 15.0776 14.1259 13.6017 14.1259 11.7809C14.1259 11.4551 14.3943 11.1867 14.7201 11.1867C15.046 11.1867 15.3335 11.4551 15.3335 11.7809C15.3335 14.2533 13.3209 16.2851 10.8293 16.2851H4.48505C2.01259 16.2851 4.29153e-06 14.2725 4.29153e-06 11.7809C4.29153e-06 11.4551 0.268367 11.1867 0.594177 11.1867Z" fill="white"/>
</svg>
