<svg width="15" height="14" viewBox="0 0 15 14" fill="none" xmlns="http://www.w3.org/2000/svg">
<path d="M7.49994 12.3201C9.06286 12.3201 10.5618 11.6711 11.6669 10.5158C12.7721 9.36059 13.3929 7.79388 13.3929 6.16004C13.3929 4.5262 12.7721 2.95943 11.6669 1.80424C10.5617 0.648986 9.06295 0 7.49994 0C5.93693 0 4.43808 0.648986 3.33297 1.80424C2.22779 2.95949 1.60694 4.5262 1.60694 6.16004C1.60694 7.79388 2.22779 9.36065 3.33297 10.5158C4.43814 11.6711 5.93693 12.3201 7.49994 12.3201ZM7.49994 1.12018C8.77871 1.12018 10.005 1.65118 10.9093 2.5963C11.8134 3.54154 12.3214 4.82341 12.3214 6.1601C12.3214 7.4968 11.8134 8.7787 10.9093 9.72391C10.005 10.669 8.77868 11.2 7.49994 11.2C6.22119 11.2 4.99486 10.669 4.09063 9.72391C3.18649 8.77867 2.6785 7.4968 2.6785 6.1601C2.6785 4.82341 3.18649 3.5415 4.09063 2.5963C4.99489 1.65118 6.22119 1.12018 7.49994 1.12018ZM15 6.16014C15 8.23938 14.2098 10.2334 12.8033 11.7038C11.3967 13.174 9.48889 14 7.5 14C5.51111 14 3.60334 13.174 2.19669 11.7038C0.7902 10.2334 0 8.23916 0 6.16014C0 5.96001 0.10212 5.77515 0.267859 5.67515C0.433598 5.57515 0.637842 5.57515 0.803578 5.67515C0.969314 5.77515 1.07144 5.96002 1.07144 6.16014C1.07144 7.94236 1.74874 9.65162 2.95435 10.9118C4.15996 12.172 5.7951 12.88 7.5 12.88C9.2049 12.88 10.8401 12.172 12.0456 10.9118C13.2513 9.65153 13.9286 7.9423 13.9286 6.16014C13.9286 5.96001 14.0307 5.77515 14.1964 5.67515C14.3622 5.57515 14.5664 5.57515 14.7321 5.67515C14.8979 5.77515 15 5.96002 15 6.16014ZM4.28563 6.16014C4.28563 6.01164 4.34207 5.86914 4.44252 5.76414C4.54296 5.65914 4.67929 5.60014 4.82135 5.60014H6.96422V3.36016C6.96422 3.16004 7.06634 2.97517 7.23208 2.87517C7.39782 2.77517 7.60206 2.77517 7.7678 2.87517C7.93353 2.97517 8.03566 3.16004 8.03566 3.36016V5.60014H10.1785C10.37 5.60014 10.5468 5.70689 10.6425 5.88014C10.7382 6.05339 10.7382 6.26689 10.6425 6.44013C10.5468 6.61338 10.37 6.72013 10.1785 6.72013H8.03566V8.96011C8.03566 9.16023 7.93354 9.3451 7.7678 9.4451C7.60206 9.5451 7.39782 9.5451 7.23208 9.4451C7.06634 9.3451 6.96422 9.16023 6.96422 8.96011V6.72013H4.82135C4.67929 6.72013 4.54296 6.66113 4.44252 6.55613C4.34207 6.45113 4.28563 6.30863 4.28563 6.16014Z" fill="white"/>
</svg>
